<?xml version="1.0" encoding="UTF-8" standalone="no"?>
<!-- Created with Inkscape (http://www.inkscape.org/) -->

<svg
   width="100mm"
   height="100mm"
   viewBox="0 0 100 100"
   version="1.1"
   id="svg1"
   inkscape:version="1.3.2 (091e20e, 2023-11-25)"
   sodipodi:docname="hugr_logo_wide.svg"
   inkscape:export-filename="hugr_logo_wide_simple.png"
   inkscape:export-xdpi="127"
   inkscape:export-ydpi="127"
   xmlns:inkscape="http://www.inkscape.org/namespaces/inkscape"
   xmlns:sodipodi="http://sodipodi.sourceforge.net/DTD/sodipodi-0.dtd"
   xmlns="http://www.w3.org/2000/svg"
   xmlns:svg="http://www.w3.org/2000/svg">
  <sodipodi:namedview
     id="namedview1"
     pagecolor="#505050"
     bordercolor="#eeeeee"
     borderopacity="1"
     inkscape:showpageshadow="0"
     inkscape:pageopacity="0"
     inkscape:pagecheckerboard="0"
     inkscape:deskcolor="#505050"
     inkscape:document-units="mm"
     inkscape:zoom="1.143593"
     inkscape:cx="152.15203"
     inkscape:cy="143.40766"
     inkscape:window-width="1392"
     inkscape:window-height="1069"
     inkscape:window-x="528"
     inkscape:window-y="50"
     inkscape:window-maximized="0"
     inkscape:current-layer="layer1" />
  <defs
     id="defs1" />
  <g
     inkscape:label="Layer 1"
     inkscape:groupmode="layer"
     id="layer1"
     style="display:inline">
    <rect
       style="fill:#00ffff;fill-opacity:1;stroke-width:0.29862"
       id="rect2"
       width="80"
       height="100"
       x="10"
       y="0" />
    <rect
       style="fill:#00ffff;fill-opacity:1;stroke-width:0.29862"
       id="rect2-5"
       width="100"
       height="80"
       x="0"
       y="10" />
    <path
       style="fill:#ff01ff;fill-opacity:1;stroke-width:0.157259;stroke-dasharray:none"
       id="path2"
       sodipodi:type="arc"
       sodipodi:cx="-30"
       sodipodi:cy="-20"
       sodipodi:rx="10"
       sodipodi:ry="10"
       sodipodi:start="0"
       sodipodi:end="3.1415927"
       sodipodi:arc-type="slice"
       d="m -20,-20 a 10,10 0 0 1 -5,8.660254 10,10 0 0 1 -10,0 A 10,10 0 0 1 -40,-20 h 10 z"
       transform="scale(-1)" />
    <path
       style="fill:#ff01ff;fill-opacity:1;stroke-width:0.157259;stroke-dasharray:none"
       id="path2-1"
       sodipodi:type="arc"
       sodipodi:cx="30"
       sodipodi:cy="80"
       sodipodi:rx="10"
       sodipodi:ry="10"
       sodipodi:start="0"
       sodipodi:end="3.1415927"
       sodipodi:arc-type="slice"
       d="m 40,80 a 10,10 0 0 1 -5,8.660254 10,10 0 0 1 -10,0 A 10,10 0 0 1 20,80 h 10 z" />
    <rect
       style="fill:#ff01ff;fill-opacity:1;stroke-width:0.274271"
       id="rect1"
       width="20"
       height="60"
       x="20"
       y="20" />
    <path
       style="fill:#ffff00;fill-opacity:1;stroke-width:0.157259;stroke-dasharray:none"
       id="path2-5"
       sodipodi:type="arc"
       sodipodi:cx="-70"
       sodipodi:cy="-20"
       sodipodi:rx="10"
       sodipodi:ry="10"
       sodipodi:start="0"
       sodipodi:end="3.1415927"
       sodipodi:arc-type="slice"
       d="m -60,-20 a 10,10 0 0 1 -5,8.660254 10,10 0 0 1 -10,0 A 10,10 0 0 1 -80,-20 h 10 z"
       transform="scale(-1)" />
    <path
       style="fill:#ffff00;fill-opacity:1;stroke-width:0.157259;stroke-dasharray:none"
       id="path2-1-2"
       sodipodi:type="arc"
       sodipodi:cx="70"
       sodipodi:cy="80"
       sodipodi:rx="10"
       sodipodi:ry="10"
       sodipodi:start="0"
       sodipodi:end="3.1415927"
       sodipodi:arc-type="slice"
       d="m 80,80 a 10,10 0 0 1 -5,8.660254 10,10 0 0 1 -10,0 A 10,10 0 0 1 60,80 h 10 z" />
    <rect
       style="fill:#ffff00;fill-opacity:1;stroke-width:0.274271"
       id="rect1-1"
       width="20"
       height="60"
       x="60"
       y="20" />
    <path
       style="fill:#ff01ff;fill-opacity:1;stroke-width:0.0786296;stroke-dasharray:none"
       id="path2-4"
       sodipodi:type="arc"
       sodipodi:cx="-45"
       sodipodi:cy="65"
       sodipodi:rx="5"
       sodipodi:ry="5"
       sodipodi:start="0"
       sodipodi:end="3.1415927"
       sodipodi:arc-type="slice"
       d="m -40,65 a 5,5 0 0 1 -2.5,4.330127 5,5 0 0 1 -5,0 A 5,5 0 0 1 -50,65 h 5 z"
       transform="rotate(-90)" />
    <rect
       style="fill:#ff01ff;fill-opacity:1;stroke-width:0.125187"
       id="rect1-5"
       width="10"
       height="25"
       x="40"
       y="-65"
       transform="rotate(90)" />
    <path
       style="fill:#ffff00;fill-opacity:1;stroke-width:0.0786296;stroke-dasharray:none"
       id="path2-4-9"
       sodipodi:type="arc"
       sodipodi:cx="55"
       sodipodi:cy="-35"
       sodipodi:rx="5"
       sodipodi:ry="5"
       sodipodi:start="0"
       sodipodi:end="3.1415927"
       sodipodi:arc-type="slice"
       d="m 60,-35 a 5,5 0 0 1 -2.5,4.330127 5,5 0 0 1 -5,0 A 5,5 0 0 1 50,-35 h 5 z"
       transform="rotate(90)" />
    <rect
       style="fill:#ffff00;fill-opacity:1;stroke-width:0.125187"
       id="rect1-5-9"
       width="10"
       height="25"
       x="-60"
       y="35"
       transform="rotate(-90)" />
    <path
       style="fill:#00ffff;fill-opacity:1;stroke-width:0.264999"
       id="path1"
       sodipodi:type="arc"
       sodipodi:cx="90"
       sodipodi:cy="90"
       sodipodi:rx="10"
       sodipodi:ry="10"
       sodipodi:start="0"
       sodipodi:end="1.5707963"
       sodipodi:arc-type="slice"
       d="M 100,90 A 10,10 0 0 1 90,100 V 90 Z" />
    <path
       style="fill:#00ffff;fill-opacity:1;stroke-width:0.264999"
       id="path1-3"
       sodipodi:type="arc"
       sodipodi:cx="-10"
       sodipodi:cy="-10"
       sodipodi:rx="10"
       sodipodi:ry="10"
       sodipodi:start="0"
       sodipodi:end="1.5707963"
       sodipodi:arc-type="slice"
       d="M 0,-10 A 10,10 0 0 1 -10,0 v -10 z"
       transform="scale(-1)"
       inkscape:transform-center-x="-3.8639735" />
    <path
       style="fill:#00ffff;fill-opacity:1;stroke-width:0.264999"
       id="path1-0"
       sodipodi:type="arc"
       sodipodi:cx="90"
       sodipodi:cy="-10"
       sodipodi:rx="10"
       sodipodi:ry="10"
       sodipodi:start="0"
       sodipodi:end="1.5707963"
       sodipodi:arc-type="slice"
       d="M 100,-10 A 10,10 0 0 1 90,0 v -10 z"
       transform="rotate(90)" />
    <path
       style="fill:#00ffff;fill-opacity:1;stroke-width:0.264999"
       id="path1-0-9"
       sodipodi:type="arc"
       sodipodi:cx="-10"
       sodipodi:cy="90"
       sodipodi:rx="10"
       sodipodi:ry="10"
       sodipodi:start="0"
       sodipodi:end="1.5707963"
       sodipodi:arc-type="slice"
       d="m 0,90 a 10,10 0 0 1 -10,10 V 90 Z"
       transform="rotate(-90)" />
    <rect
       style="display:inline;fill:#00ffff;fill-opacity:1;stroke-width:0.218227"
       id="rect3"
       width="10"
       height="1"
       x="30"
       y="39" />
    <rect
       style="display:inline;fill:#00ffff;fill-opacity:1;stroke-width:0.218227"
       id="rect3-2"
       width="10"
       height="1"
       x="60"
       y="60" />
  </g>
</svg>
