<?xml version="1.0" encoding="UTF-8" standalone="no"?>
<!-- Created with Inkscape (http://www.inkscape.org/) -->

<svg
   width="100mm"
   height="100mm"
   viewBox="0 0 100 100"
   version="1.1"
   id="svg1"
   inkscape:version="1.3.2 (091e20e, 2023-11-25)"
   sodipodi:docname="hugr_logo_wide.svg"
   inkscape:export-filename="hugr_logo_wide_simple.png"
   inkscape:export-xdpi="127"
   inkscape:export-ydpi="127"
   xmlns:inkscape="http://www.inkscape.org/namespaces/inkscape"
   xmlns:sodipodi="http://sodipodi.sourceforge.net/DTD/sodipodi-0.dtd"
   xmlns="http://www.w3.org/2000/svg"
   xmlns:svg="http://www.w3.org/2000/svg">
  <sodipodi:namedview
     id="namedview1"
     pagecolor="#505050"
     bordercolor="#eeeeee"
     borderopacity="1"
     inkscape:showpageshadow="0"
     inkscape:pageopacity="0"
     inkscape:pagecheckerboard="0"
     inkscape:deskcolor="#505050"
     inkscape:document-units="mm"
     inkscape:zoom="1.143593"
     inkscape:cx="151.2776"
     inkscape:cy="143.40766"
     inkscape:window-width="1392"
     inkscape:window-height="1041"
     inkscape:window-x="528"
     inkscape:window-y="25"
     inkscape:window-maximized="0"
     inkscape:current-layer="layer1" />
  <defs
     id="defs1" />
  <g
     inkscape:label="Layer 1"
     inkscape:groupmode="layer"
     id="layer1"
     style="display:inline">
    <path
       id="path1-0-9"
       style="display:inline;fill:#00ffff;stroke-width:0.264999"
       transform="rotate(-90)"
       d="m 0,90 a 10,10 0 0 1 -10,10 V 90 Z M -100,10 A 10,10 0 0 1 -90,0 V 10 Z M -10,0 A 10,10 0 0 1 0,10 h -10 z m -80,100 a 10,10 0 0 1 -10,-10 h 10 z M -10,0 V 100 H -90 V 0 Z M 0,10 V 90 H -100 V 10 Z" />
    <path
       id="rect1-5"
       style="fill:#ff01ff;stroke-width:0.125187"
       d="M 9.9999064 -30.000236 A 10 10 0 0 0 11.339876 -25.000024 A 10 10 0 0 0 19.999813 -19.999813 L 79.999768 -19.999813 A 10 10 0 0 0 88.660221 -25.000024 A 10 10 0 0 0 88.660221 -34.999931 A 10 10 0 0 0 79.999768 -40.000142 L 50.000049 -40.000142 L 50.000049 -65.000167 A 5 5 0 0 0 47.499943 -69.330135 A 5 5 0 0 0 42.500248 -69.330135 A 5 5 0 0 0 40.000142 -65.000167 L 40.000142 -40.000142 L 40.000142 -30.000236 L 39.000203 -30.000236 L 39.000203 -40.000142 L 19.999813 -40.000142 A 10 10 0 0 0 11.339876 -34.999931 A 10 10 0 0 0 9.9999064 -30.000236 z "
       transform="rotate(90)" />
    <path
       id="rect1-5-9"
       style="fill:#ffff00;stroke-width:0.125187"
       d="M -9.9999064 69.999862 A 10 10 0 0 0 -11.339876 65.000167 A 10 10 0 0 0 -19.999813 59.999955 L -40.000142 59.999955 L -40.000142 65.000167 A 5 5 0 0 1 -42.500248 69.330135 A 5 5 0 0 1 -47.499943 69.330135 A 5 5 0 0 1 -50.000049 65.000167 L -50.000049 59.999955 L -50.000049 34.999931 A 5 5 0 0 0 -52.500155 30.669963 A 5 5 0 0 0 -57.499849 30.669963 A 5 5 0 0 0 -59.999955 34.999931 L -59.999955 59.999955 L -59.999955 69.999862 L -60.999894 69.999862 L -60.999894 59.999955 L -79.999768 59.999955 A 10 10 0 0 0 -88.660221 65.000167 A 10 10 0 0 0 -88.660221 75.000073 A 10 10 0 0 0 -79.999768 79.999768 L -19.999813 79.999768 A 10 10 0 0 0 -11.339876 75.000073 A 10 10 0 0 0 -9.9999064 69.999862 z "
       transform="rotate(-90)" />
  </g>
</svg>
